<svg xmlns="http://www.w3.org/2000/svg" width="1024" height="1024" viewBox="0 0 1024 1024">
<style>
  .bg-path {
    fill: rgb(254, 254, 254);
    transition: fill 0.3s ease;
  }
  .dino-path {
    fill: rgb(25, 26, 20);
    transition: fill 0.3s ease;
  }
  @media (prefers-color-scheme: dark) {
    .bg-path {
      fill: rgb(15, 6, 6);
    }
    .dino-path {
      fill: rgb(254, 254, 254);
    }
  }
</style>
<g>
<path class="dino-path" d="M 468.50 830.50 L 469.05 860.00 L 345.00 860.00 L 345.00 853.41 C345.00,847.65 345.26,846.75 347.00,846.29 C348.80,845.82 349.00,844.93 349.00,837.38 L 349.00 829.00 L 367.00 829.00 L 367.00 799.00 L 345.00 799.00 L 345.00 796.50 C345.00,794.25 345.40,794.00 349.00,794.00 L 353.00 794.00 L 353.00 756.06 L 366.25 755.78 L 379.50 755.50 L 380.05 726.00 L 312.07 726.00 L 311.78 715.75 L 311.50 705.50 L 293.27 705.23 C276.29,704.97 274.97,704.82 273.99,702.98 C273.05,701.22 271.87,701.00 263.57,701.00 L 254.22 701.00 L 252.50 678.50 L 217.09 677.95 L 216.50 663.50 L 208.25 663.21 L 200.00 662.92 L 200.00 657.66 C200.00,654.77 199.46,651.86 198.80,651.20 C198.07,650.47 194.53,650.00 189.80,650.00 L 182.00 650.00 L 182.00 641.58 C182.00,636.95 181.73,632.45 181.39,631.58 C180.91,630.31 179.11,630.00 172.25,630.00 L 163.71 630.00 L 164.26 621.98 C164.97,611.73 164.34,611.00 154.93,611.00 L 148.00 611.00 L 147.88 605.25 C147.81,602.09 147.85,597.18 147.96,594.34 C148.21,588.32 146.94,587.44 139.61,588.54 L 139.48 588.56 C136.11,589.06 134.08,589.36 132.86,588.51 C131.00,587.22 131.00,583.25 131.00,573.24 L 131.00 558.10 L 125.25 557.80 L 119.50 557.50 L 118.50 530.53 L 114.50 529.81 C112.30,529.42 109.33,529.32 107.91,529.59 C106.36,529.89 104.85,529.52 104.15,528.68 C103.28,527.64 103.05,508.88 103.24,454.89 L 103.50 382.50 L 120.00 381.92 L 120.00 367.14 L 125.25 366.49 C128.14,366.13 132.30,365.99 134.50,366.17 L 138.50 366.50 L 139.50 433.50 L 155.94 434.08 L 156.50 456.50 L 170.50 457.50 L 171.50 481.50 L 177.71 481.80 L 183.93 482.09 L 184.21 491.30 L 184.50 500.50 L 210.00 501.06 L 210.00 528.00 L 270.00 528.00 L 270.00 481.00 L 303.00 481.00 L 303.00 381.00 L 324.95 381.00 L 325.50 345.50 L 361.50 344.50 L 361.77 322.78 L 362.04 301.05 L 377.67 300.78 L 393.30 300.50 L 393.50 277.50 L 438.00 276.96 L 438.00 300.00 L 531.00 300.00 L 531.00 306.00 L 579.00 306.00 L 579.00 254.09 L 572.25 253.80 L 565.50 253.50 L 564.93 233.50 L 577.01 233.83 C585.42,234.07 589.53,233.80 590.55,232.96 C591.72,231.99 592.00,228.37 592.00,214.40 L 592.00 197.05 L 608.75 196.77 L 625.50 196.50 L 626.50 164.50 L 885.50 164.50 L 885.50 196.50 L 902.25 196.77 L 919.00 197.05 L 919.00 318.00 L 890.00 318.00 L 890.00 343.00 L 860.06 343.00 L 859.78 330.75 L 859.50 318.50 L 844.58 318.22 C833.31,318.01 829.45,318.26 828.84,319.22 C828.40,319.93 828.02,325.50 828.02,331.62 L 828.00 342.74 L 813.75 343.23 C805.91,343.50 799.16,343.53 798.75,343.30 C798.34,343.07 798.00,337.27 798.00,330.41 L 798.00 317.95 L 782.75 318.22 L 767.50 318.50 L 767.50 381.50 L 819.75 381.76 L 872.00 382.02 L 872.00 413.99 L 803.75 414.24 L 735.50 414.50 L 735.50 481.50 L 799.50 482.50 L 799.50 545.50 L 784.90 545.78 L 770.31 546.05 L 769.72 530.90 C769.40,522.56 768.74,515.34 768.24,514.84 C767.75,514.35 760.18,514.07 751.42,514.22 L 735.50 514.50 L 735.24 554.71 L 734.98 594.92 L 727.24 595.21 L 719.50 595.50 L 718.50 652.50 L 699.50 653.50 L 698.94 677.90 L 687.50 678.50 L 686.94 702.00 L 672.07 702.00 L 671.79 711.75 L 671.50 721.50 L 655.50 722.50 L 655.22 734.21 L 654.94 745.92 L 646.22 746.21 L 637.50 746.50 L 636.50 766.50 L 625.00 766.52 C618.67,766.54 612.73,766.65 611.78,766.77 C610.29,766.97 610.03,768.50 609.78,778.25 L 609.50 789.50 L 600.03 789.79 C594.01,789.98 590.29,790.52 589.80,791.29 C589.38,791.96 589.02,800.94 589.02,811.25 L 589.00 830.00 L 621.00 830.00 L 621.00 860.00 L 558.00 860.00 L 558.00 816.00 L 544.00 816.00 L 544.00 830.00 L 525.00 830.00 L 525.00 746.00 L 499.00 746.00 L 499.00 774.00 L 484.70 774.00 C474.91,774.00 470.02,774.38 469.20,775.20 C468.40,776.00 468.00,780.46 468.00,788.67 L 468.00 800.95 L 439.50 801.50 L 439.50 829.50 ZM 384.50 360.50 L 383.99 654.00 L 545.00 654.00 L 545.00 632.00 L 567.89 632.00 C587.85,632.00 590.86,631.80 591.39,630.42 C591.73,629.55 592.00,621.46 592.00,612.45 L 592.00 596.07 L 602.75 595.78 L 613.50 595.50 L 613.50 418.50 L 592.05 417.93 L 591.50 382.50 L 545.00 381.96 L 545.00 359.99 ZM 522.39 601.42 C521.85,602.83 517.14,603.00 479.56,603.00 C456.34,603.00 437.03,602.70 436.67,602.33 C436.30,601.97 436.00,558.77 436.00,506.33 L 436.00 411.00 L 523.00 411.00 L 523.00 433.93 L 533.75 434.22 L 544.50 434.50 L 544.78 445.75 L 545.07 457.00 L 561.00 457.00 L 561.00 555.92 L 545.50 556.50 L 544.50 579.50 L 533.75 579.78 L 523.00 580.07 L 523.00 589.95 C523.00,595.39 522.73,600.55 522.39,601.42 ZM 659.00 208.00 L 659.00 256.00 L 708.00 256.00 L 708.00 208.00 Z" />
<path class="bg-path" d="M 0.00 512.00 L 0.00 0.00 L 512.00 0.00 L 1024.00 0.00 L 1024.00 512.00 L 1024.00 1024.00 L 512.00 1024.00 L 0.00 1024.00 L 0.00 512.00 ZM 468.78 845.25 L 468.50 830.50 L 454.00 830.00 L 439.50 829.50 L 439.50 815.50 L 439.50 801.50 L 453.75 801.22 L 468.00 800.95 L 468.00 788.67 C468.00,780.46 468.40,776.00 469.20,775.20 C470.02,774.38 474.91,774.00 484.70,774.00 L 499.00 774.00 L 499.00 760.00 L 499.00 746.00 L 512.00 746.00 L 525.00 746.00 L 525.00 788.00 L 525.00 830.00 L 534.50 830.00 L 544.00 830.00 L 544.00 823.00 L 544.00 816.00 L 551.00 816.00 L 558.00 816.00 L 558.00 838.00 L 558.00 860.00 L 589.50 860.00 L 621.00 860.00 L 621.00 845.00 L 621.00 830.00 L 605.00 830.00 L 589.00 830.00 L 589.02 811.25 C589.02,800.94 589.38,791.96 589.80,791.29 C590.29,790.52 594.01,789.98 600.03,789.79 L 609.50 789.50 L 609.78 778.25 C610.03,768.50 610.29,766.97 611.78,766.77 C612.73,766.65 618.67,766.54 625.00,766.52 L 636.50 766.50 L 637.00 756.50 L 637.50 746.50 L 646.22 746.21 L 654.94 745.92 L 655.22 734.21 L 655.50 722.50 L 663.50 722.00 L 671.50 721.50 L 671.79 711.75 L 672.07 702.00 L 679.50 702.00 L 686.94 702.00 L 687.22 690.25 L 687.50 678.50 L 693.22 678.20 L 698.94 677.90 L 699.22 665.70 L 699.50 653.50 L 709.00 653.00 L 718.50 652.50 L 719.00 624.00 L 719.50 595.50 L 727.24 595.21 L 734.98 594.92 L 735.24 554.71 L 735.50 514.50 L 751.42 514.22 C760.18,514.07 767.75,514.35 768.24,514.84 C768.74,515.34 769.40,522.56 769.72,530.90 L 770.31 546.05 L 784.90 545.78 L 799.50 545.50 L 799.50 514.00 L 799.50 482.50 L 767.50 482.00 L 735.50 481.50 L 735.50 448.00 L 735.50 414.50 L 803.75 414.24 L 872.00 413.99 L 872.00 398.00 L 872.00 382.02 L 819.75 381.76 L 767.50 381.50 L 767.50 350.00 L 767.50 318.50 L 782.75 318.22 L 798.00 317.95 L 798.00 330.41 C798.00,337.27 798.34,343.07 798.75,343.30 C799.16,343.53 805.91,343.50 813.75,343.23 L 828.00 342.74 L 828.02 331.62 C828.02,325.50 828.40,319.93 828.84,319.22 C829.45,318.26 833.31,318.01 844.58,318.22 L 859.50 318.50 L 859.78 330.75 L 860.06 343.00 L 875.03 343.00 L 890.00 343.00 L 890.00 330.50 L 890.00 318.00 L 904.50 318.00 L 919.00 318.00 L 919.00 257.52 L 919.00 197.05 L 902.25 196.77 L 885.50 196.50 L 885.50 180.50 L 885.50 164.50 L 756.00 164.50 L 626.50 164.50 L 626.00 180.50 L 625.50 196.50 L 608.75 196.77 L 592.00 197.05 L 592.00 214.40 C592.00,228.37 591.72,231.99 590.55,232.96 C589.53,233.80 585.42,234.07 577.01,233.83 L 564.93 233.50 L 565.22 243.50 L 565.50 253.50 L 572.25 253.80 L 579.00 254.09 L 579.00 280.05 L 579.00 306.00 L 555.00 306.00 L 531.00 306.00 L 531.00 303.00 L 531.00 300.00 L 484.50 300.00 L 438.00 300.00 L 438.00 288.48 L 438.00 276.96 L 415.75 277.23 L 393.50 277.50 L 393.40 289.00 L 393.30 300.50 L 377.67 300.78 L 362.04 301.05 L 361.77 322.78 L 361.50 344.50 L 343.50 345.00 L 325.50 345.50 L 325.23 363.25 L 324.95 381.00 L 313.98 381.00 L 303.00 381.00 L 303.00 431.00 L 303.00 481.00 L 286.50 481.00 L 270.00 481.00 L 270.00 504.50 L 270.00 528.00 L 240.00 528.00 L 210.00 528.00 L 210.00 514.53 L 210.00 501.06 L 197.25 500.78 L 184.50 500.50 L 184.21 491.30 L 183.93 482.09 L 177.71 481.80 L 171.50 481.50 L 171.00 469.50 L 170.50 457.50 L 163.50 457.00 L 156.50 456.50 L 156.22 445.29 L 155.94 434.08 L 147.72 433.79 L 139.50 433.50 L 139.00 400.00 L 138.50 366.50 L 134.50 366.17 C132.30,365.99 128.14,366.13 125.25,366.49 L 120.00 367.14 L 120.00 374.53 L 120.00 381.92 L 111.75 382.21 L 103.50 382.50 L 103.24 454.89 C103.05,508.88 103.28,527.64 104.15,528.68 C104.85,529.52 106.36,529.89 107.91,529.59 C109.33,529.32 112.30,529.42 114.50,529.81 L 118.50 530.53 L 119.00 544.01 L 119.50 557.50 L 125.25 557.80 L 131.00 558.10 L 131.00 572.98 C131.00,589.91 130.95,589.83 139.61,588.54 C146.94,587.44 148.21,588.32 147.96,594.34 C147.85,597.18 147.81,602.09 147.88,605.25 L 148.00 611.00 L 154.93 611.00 C164.34,611.00 164.97,611.73 164.26,621.98 L 163.71 630.00 L 172.25 630.00 C179.11,630.00 180.91,630.31 181.39,631.58 C181.73,632.45 182.00,636.95 182.00,641.58 L 182.00 650.00 L 189.80 650.00 C194.53,650.00 198.07,650.47 198.80,651.20 C199.46,651.86 200.00,654.77 200.00,657.66 L 200.00 662.92 L 208.25 663.21 L 216.50 663.50 L 216.79 670.73 L 217.09 677.95 L 234.79 678.23 L 252.50 678.50 L 253.36 689.75 L 254.22 701.00 L 263.57 701.00 C271.87,701.00 273.05,701.22 273.99,702.98 C274.97,704.82 276.29,704.97 293.27,705.23 L 311.50 705.50 L 311.78 715.75 L 312.07 726.00 L 346.06 726.00 L 380.05 726.00 L 379.78 740.75 L 379.50 755.50 L 366.25 755.78 L 353.00 756.06 L 353.00 775.03 L 353.00 794.00 L 349.00 794.00 C345.40,794.00 345.00,794.25 345.00,796.50 L 345.00 799.00 L 356.00 799.00 L 367.00 799.00 L 367.00 814.00 L 367.00 829.00 L 358.00 829.00 L 349.00 829.00 L 349.00 837.38 C349.00,844.93 348.80,845.82 347.00,846.29 C345.26,846.75 345.00,847.65 345.00,853.41 L 345.00 860.00 L 407.03 860.00 L 469.05 860.00 L 468.78 845.25 ZM 384.25 507.25 L 384.50 360.50 L 464.75 360.24 L 545.00 359.99 L 545.00 370.98 L 545.00 381.96 L 568.25 382.23 L 591.50 382.50 L 591.77 400.22 L 592.05 417.93 L 602.77 418.22 L 613.50 418.50 L 613.50 507.00 L 613.50 595.50 L 602.75 595.78 L 592.00 596.07 L 592.00 612.45 C592.00,621.46 591.73,629.55 591.39,630.42 C590.86,631.80 587.85,632.00 567.89,632.00 L 545.00 632.00 L 545.00 643.00 L 545.00 654.00 L 464.50 654.00 L 383.99 654.00 L 384.25 507.25 ZM 522.39 601.42 C522.73,600.55 523.00,595.39 523.00,589.95 L 523.00 580.07 L 533.75 579.78 L 544.50 579.50 L 545.00 568.00 L 545.50 556.50 L 553.25 556.21 L 561.00 555.92 L 561.00 506.46 L 561.00 457.00 L 553.03 457.00 L 545.07 457.00 L 544.78 445.75 L 544.50 434.50 L 533.75 434.22 L 523.00 433.93 L 523.00 422.47 L 523.00 411.00 L 479.50 411.00 L 436.00 411.00 L 436.00 506.33 C436.00,558.77 436.30,601.97 436.67,602.33 C437.03,602.70 456.34,603.00 479.56,603.00 C517.14,603.00 521.85,602.83 522.39,601.42 ZM 659.00 232.00 L 659.00 208.00 L 683.50 208.00 L 708.00 208.00 L 708.00 232.00 L 708.00 256.00 L 683.50 256.00 L 659.00 256.00 L 659.00 232.00 Z"/>
</g>
</svg>